<svg viewBox="0 0 310 82" xmlns="http://www.w3.org/2000/svg"><rect width="310" height="82" fill="#030d14"/><g transform="translate(9,6) scale(0.97)"><line x1="8" y1="4" x2="52" y2="4" stroke="#cce8f4" stroke-width="1.5" opacity="0.35" stroke-linecap="round"/><line x1="14" y1="9" x2="46" y2="9" stroke="#cce8f4" stroke-width="1" opacity="0.18" stroke-linecap="round"/><line x1="30" y1="4" x2="30" y2="50" stroke="#cce8f4" stroke-width="1.5" opacity="0.5" stroke-linecap="round"/><line x1="20" y1="18" x2="40" y2="18" stroke="#00b4d8" stroke-width="2.5" stroke-linecap="round"/><line x1="20" y1="39" x2="40" y2="39" stroke="#00b4d8" stroke-width="2.5" stroke-linecap="round"/><line x1="24" y1="28" x2="36" y2="28" stroke="#00b4d8" stroke-width="1.5" stroke-linecap="round"/><circle cx="17" cy="18" r="1.5" fill="#00b4d8" opacity="0.7"/><circle cx="17" cy="39" r="1.5" fill="#00b4d8" opacity="0.7"/><path d="M30,49 C30,49 22,53 22,58 C22,62.4 25.6,66 30,66 C34.4,66 38,62.4 38,58 C38,53 30,49 30,49Z" fill="#00b4d8"/><circle cx="30" cy="58" r="2.5" fill="#030d14" opacity="0.7"/></g><text font-family="Georgia,'Times New Roman',serif"><tspan x="70" y="37" font-size="23" font-weight="700" letter-spacing="6" fill="#cce8f4">FATHOM</tspan><tspan x="70" y="57" font-size="11" font-weight="400" letter-spacing="12" fill="#00b4d8">WORKS</tspan></text></svg>